<svg id="visual" viewBox="0 0 1280 720" width="1280" height="720" xmlns="http://www.w3.org/2000/svg" xmlns:xlink="http://www.w3.org/1999/xlink" version="1.1"><g stroke-width="1" stroke-linejoin="bevel"><path d="M624 339.6L712.7 314.6L624 236.7Z" fill="#25638a" stroke="#25638a"></path><path d="M712.7 314.6L728.7 230.7L624 236.7Z" fill="#27a4cf" stroke="#27a4cf"></path><path d="M579.3 75.9L538.3 238.7L624 236.7Z" fill="#27a4cf" stroke="#27a4cf"></path><path d="M624 236.7L538.3 238.7L624 339.6Z" fill="#26bbe4" stroke="#26bbe4"></path><path d="M538.3 238.7L521.3 316.6L624 339.6Z" fill="#214f73" stroke="#214f73"></path><path d="M530.3 419.4L675 436.4L624 339.6Z" fill="#278eb8" stroke="#278eb8"></path><path d="M624 339.6L675 436.4L712.7 314.6Z" fill="#26bbe4" stroke="#26bbe4"></path><path d="M675 436.4L773.7 399.4L712.7 314.6Z" fill="#27a4cf" stroke="#27a4cf"></path><path d="M712.7 314.6L880.3 273.6L728.7 230.7Z" fill="#27a4cf" stroke="#27a4cf"></path><path d="M728.7 230.7L660 115.9L624 236.7Z" fill="#26bbe4" stroke="#26bbe4"></path><path d="M521.3 316.6L530.3 419.4L624 339.6Z" fill="#00041c" stroke="#00041c"></path><path d="M419.7 351.6L467.7 389.4L521.3 316.6Z" fill="#278eb8" stroke="#278eb8"></path><path d="M521.3 316.6L467.7 389.4L530.3 419.4Z" fill="#152a45" stroke="#152a45"></path><path d="M773.7 399.4L880.3 273.6L712.7 314.6Z" fill="#26bbe4" stroke="#26bbe4"></path><path d="M728.7 230.7L709.7 61.9L660 115.9Z" fill="#152a45" stroke="#152a45"></path><path d="M880.3 273.6L867.3 204.7L728.7 230.7Z" fill="#0d1a30" stroke="#0d1a30"></path><path d="M651 0L579.3 75.9L660 115.9Z" fill="#27a4cf" stroke="#27a4cf"></path><path d="M660 115.9L579.3 75.9L624 236.7Z" fill="#27a4cf" stroke="#27a4cf"></path><path d="M412.7 203.7L419.7 351.6L521.3 316.6Z" fill="#27d3f9" stroke="#27d3f9"></path><path d="M593 526.3L743.7 501.3L675 436.4Z" fill="#152a45" stroke="#152a45"></path><path d="M675 436.4L743.7 501.3L773.7 399.4Z" fill="#214f73" stroke="#214f73"></path><path d="M773.7 399.4L888.3 422.4L880.3 273.6Z" fill="#278eb8" stroke="#278eb8"></path><path d="M848.3 112.9L709.7 61.9L728.7 230.7Z" fill="#278eb8" stroke="#278eb8"></path><path d="M412.7 203.7L521.3 316.6L538.3 238.7Z" fill="#00041c" stroke="#00041c"></path><path d="M493.3 499.3L593 526.3L530.3 419.4Z" fill="#00041c" stroke="#00041c"></path><path d="M530.3 419.4L593 526.3L675 436.4Z" fill="#278eb8" stroke="#278eb8"></path><path d="M493.3 499.3L530.3 419.4L467.7 389.4Z" fill="#26bbe4" stroke="#26bbe4"></path><path d="M579.3 75.9L412.7 203.7L538.3 238.7Z" fill="#2778a1" stroke="#2778a1"></path><path d="M867.3 204.7L848.3 112.9L728.7 230.7Z" fill="#152a45" stroke="#152a45"></path><path d="M743.7 501.3L888.3 422.4L773.7 399.4Z" fill="#26bbe4" stroke="#26bbe4"></path><path d="M431.7 541.3L493.3 499.3L467.7 389.4Z" fill="#2778a1" stroke="#2778a1"></path><path d="M888.3 422.4L943 286.6L880.3 273.6Z" fill="#278eb8" stroke="#278eb8"></path><path d="M880.3 273.6L943 286.6L867.3 204.7Z" fill="#27d3f9" stroke="#27d3f9"></path><path d="M867.3 204.7L970 134.9L848.3 112.9Z" fill="#278eb8" stroke="#278eb8"></path><path d="M709.7 61.9L651 0L660 115.9Z" fill="#0d1a30" stroke="#0d1a30"></path><path d="M579.3 75.9L395.7 82.9L412.7 203.7Z" fill="#00041c" stroke="#00041c"></path><path d="M709.7 0L651 0L709.7 61.9Z" fill="#26bbe4" stroke="#26bbe4"></path><path d="M824.3 0L709.7 0L709.7 61.9Z" fill="#26bbe4" stroke="#26bbe4"></path><path d="M651 0L568.3 0L579.3 75.9Z" fill="#26bbe4" stroke="#26bbe4"></path><path d="M593 526.3L723.7 595.1L743.7 501.3Z" fill="#0d1a30" stroke="#0d1a30"></path><path d="M743.7 501.3L890.3 516.3L888.3 422.4Z" fill="#00041c" stroke="#00041c"></path><path d="M641 620.1L723.7 595.1L593 526.3Z" fill="#27a4cf" stroke="#27a4cf"></path><path d="M493.3 499.3L575.3 592.1L593 526.3Z" fill="#27a4cf" stroke="#27a4cf"></path><path d="M828.3 571.1L890.3 516.3L743.7 501.3Z" fill="#0d1a30" stroke="#0d1a30"></path><path d="M888.3 422.4L987 375.4L943 286.6Z" fill="#27a4cf" stroke="#27a4cf"></path><path d="M412.7 203.7L331 326.6L419.7 351.6Z" fill="#27a4cf" stroke="#27a4cf"></path><path d="M297 418.4L431.7 541.3L467.7 389.4Z" fill="#214f73" stroke="#214f73"></path><path d="M493.3 499.3L457.7 625.1L575.3 592.1Z" fill="#278eb8" stroke="#278eb8"></path><path d="M723.7 595.1L828.3 571.1L743.7 501.3Z" fill="#26bbe4" stroke="#26bbe4"></path><path d="M575.3 592.1L641 620.1L593 526.3Z" fill="#27a4cf" stroke="#27a4cf"></path><path d="M923 644.1L917 560.3L828.3 571.1Z" fill="#152a45" stroke="#152a45"></path><path d="M428.7 0L395.7 82.9L579.3 75.9Z" fill="#214f73" stroke="#214f73"></path><path d="M412.7 203.7L302 251.7L331 326.6Z" fill="#278eb8" stroke="#278eb8"></path><path d="M848.3 112.9L824.3 0L709.7 61.9Z" fill="#0d1a30" stroke="#0d1a30"></path><path d="M993 0L824.3 0L848.3 112.9Z" fill="#00041c" stroke="#00041c"></path><path d="M1022.7 267.6L981 204.7L943 286.6Z" fill="#1c3c5c" stroke="#1c3c5c"></path><path d="M943 286.6L981 204.7L867.3 204.7Z" fill="#25638a" stroke="#25638a"></path><path d="M297 418.4L467.7 389.4L419.7 351.6Z" fill="#26bbe4" stroke="#26bbe4"></path><path d="M511.3 720L673 720L641 620.1Z" fill="#27d3f9" stroke="#27d3f9"></path><path d="M1019.7 407.4L987 375.4L888.3 422.4Z" fill="#27d3f9" stroke="#27d3f9"></path><path d="M981 204.7L970 134.9L867.3 204.7Z" fill="#27a4cf" stroke="#27a4cf"></path><path d="M354 80.9L302 251.7L412.7 203.7Z" fill="#25638a" stroke="#25638a"></path><path d="M987 375.4L1022.7 267.6L943 286.6Z" fill="#152a45" stroke="#152a45"></path><path d="M981 204.7L1022.7 202.7L970 134.9Z" fill="#2778a1" stroke="#2778a1"></path><path d="M428.7 0L354 80.9L395.7 82.9Z" fill="#27a4cf" stroke="#27a4cf"></path><path d="M395.7 82.9L354 80.9L412.7 203.7Z" fill="#2778a1" stroke="#2778a1"></path><path d="M568.3 0L428.7 0L579.3 75.9Z" fill="#27d3f9" stroke="#27d3f9"></path><path d="M1022.7 267.6L1022.7 202.7L981 204.7Z" fill="#2778a1" stroke="#2778a1"></path><path d="M890.3 516.3L1019.7 407.4L888.3 422.4Z" fill="#26bbe4" stroke="#26bbe4"></path><path d="M828.3 571.1L917 560.3L890.3 516.3Z" fill="#0d1a30" stroke="#0d1a30"></path><path d="M840.3 720L828.3 571.1L723.7 595.1Z" fill="#214f73" stroke="#214f73"></path><path d="M917 560.3L1019.7 407.4L890.3 516.3Z" fill="#25638a" stroke="#25638a"></path><path d="M987 375.4L1019.7 407.4L1022.7 267.6Z" fill="#00041c" stroke="#00041c"></path><path d="M239.3 343.6L297 418.4L331 326.6Z" fill="#26bbe4" stroke="#26bbe4"></path><path d="M331 326.6L297 418.4L419.7 351.6Z" fill="#27a4cf" stroke="#27a4cf"></path><path d="M353 549.3L457.7 625.1L431.7 541.3Z" fill="#26bbe4" stroke="#26bbe4"></path><path d="M431.7 541.3L457.7 625.1L493.3 499.3Z" fill="#00041c" stroke="#00041c"></path><path d="M297 418.4L353 549.3L431.7 541.3Z" fill="#27d3f9" stroke="#27d3f9"></path><path d="M302 251.7L239.3 343.6L331 326.6Z" fill="#152a45" stroke="#152a45"></path><path d="M297 418.4L257.3 546.3L353 549.3Z" fill="#214f73" stroke="#214f73"></path><path d="M242.3 207.7L239.3 343.6L302 251.7Z" fill="#2778a1" stroke="#2778a1"></path><path d="M354 80.9L242.3 207.7L302 251.7Z" fill="#2778a1" stroke="#2778a1"></path><path d="M239.3 343.6L252.3 422.4L297 418.4Z" fill="#2778a1" stroke="#2778a1"></path><path d="M511.3 720L641 620.1L575.3 592.1Z" fill="#27a4cf" stroke="#27a4cf"></path><path d="M641 620.1L699.7 720L723.7 595.1Z" fill="#2778a1" stroke="#2778a1"></path><path d="M673 720L699.7 720L641 620.1Z" fill="#25638a" stroke="#25638a"></path><path d="M1088.7 90.9L993 0L970 134.9Z" fill="#2778a1" stroke="#2778a1"></path><path d="M970 134.9L993 0L848.3 112.9Z" fill="#27a4cf" stroke="#27a4cf"></path><path d="M840.3 720L923 644.1L828.3 571.1Z" fill="#27a4cf" stroke="#27a4cf"></path><path d="M917 560.3L1078.7 514.3L1019.7 407.4Z" fill="#2778a1" stroke="#2778a1"></path><path d="M354 80.9L257.3 82.9L242.3 207.7Z" fill="#27a4cf" stroke="#27a4cf"></path><path d="M310 0L257.3 82.9L354 80.9Z" fill="#25638a" stroke="#25638a"></path><path d="M428.7 0L310 0L354 80.9Z" fill="#278eb8" stroke="#278eb8"></path><path d="M398.7 720L511.3 720L457.7 625.1Z" fill="#27d3f9" stroke="#27d3f9"></path><path d="M457.7 625.1L511.3 720L575.3 592.1Z" fill="#2778a1" stroke="#2778a1"></path><path d="M699.7 720L840.3 720L723.7 595.1Z" fill="#214f73" stroke="#214f73"></path><path d="M1216.3 250.7L1088.7 90.9L1022.7 202.7Z" fill="#27d3f9" stroke="#27d3f9"></path><path d="M1022.7 202.7L1088.7 90.9L970 134.9Z" fill="#00041c" stroke="#00041c"></path><path d="M1216.3 250.7L1022.7 202.7L1022.7 267.6Z" fill="#27d3f9" stroke="#27d3f9"></path><path d="M252.3 422.4L257.3 546.3L297 418.4Z" fill="#2778a1" stroke="#2778a1"></path><path d="M353 549.3L331 644.1L457.7 625.1Z" fill="#1c3c5c" stroke="#1c3c5c"></path><path d="M239.3 588.1L257.3 546.3L111.7 478.3Z" fill="#25638a" stroke="#25638a"></path><path d="M1084.7 627.1L1078.7 514.3L917 560.3Z" fill="#278eb8" stroke="#278eb8"></path><path d="M1019.7 407.4L1138.3 419.4L1022.7 267.6Z" fill="#278eb8" stroke="#278eb8"></path><path d="M1137.3 472.3L1078.7 514.3L1161.3 643.1Z" fill="#27d3f9" stroke="#27d3f9"></path><path d="M257.3 546.3L331 644.1L353 549.3Z" fill="#0d1a30" stroke="#0d1a30"></path><path d="M1137.3 472.3L1138.3 419.4L1019.7 407.4Z" fill="#2778a1" stroke="#2778a1"></path><path d="M1088.7 90.9L1068.7 0L993 0Z" fill="#25638a" stroke="#25638a"></path><path d="M331 644.1L398.7 720L457.7 625.1Z" fill="#0d1a30" stroke="#0d1a30"></path><path d="M1084.7 627.1L917 560.3L923 644.1Z" fill="#27a4cf" stroke="#27a4cf"></path><path d="M1078.7 514.3L1137.3 472.3L1019.7 407.4Z" fill="#27a4cf" stroke="#27a4cf"></path><path d="M257.3 546.3L239.3 588.1L331 644.1Z" fill="#152a45" stroke="#152a45"></path><path d="M331 644.1L276 720L398.7 720Z" fill="#214f73" stroke="#214f73"></path><path d="M111.7 478.3L257.3 546.3L252.3 422.4Z" fill="#25638a" stroke="#25638a"></path><path d="M840.3 720L958 720L923 644.1Z" fill="#1c3c5c" stroke="#1c3c5c"></path><path d="M958 720L1084.7 627.1L923 644.1Z" fill="#0d1a30" stroke="#0d1a30"></path><path d="M242.3 207.7L110.7 317.6L239.3 343.6Z" fill="#152a45" stroke="#152a45"></path><path d="M239.3 343.6L115.7 445.4L252.3 422.4Z" fill="#25638a" stroke="#25638a"></path><path d="M82.7 250.7L110.7 317.6L242.3 207.7Z" fill="#214f73" stroke="#214f73"></path><path d="M310 0L191.3 0L257.3 82.9Z" fill="#27a4cf" stroke="#27a4cf"></path><path d="M90.7 144.9L82.7 250.7L242.3 207.7Z" fill="#214f73" stroke="#214f73"></path><path d="M1280 293.6L1213.3 315.6L1280 394.4Z" fill="#00041c" stroke="#00041c"></path><path d="M1280 394.4L1213.3 315.6L1138.3 419.4Z" fill="#214f73" stroke="#214f73"></path><path d="M1138.3 419.4L1213.3 315.6L1022.7 267.6Z" fill="#1c3c5c" stroke="#1c3c5c"></path><path d="M1088.7 90.9L1135.3 0L1068.7 0Z" fill="#214f73" stroke="#214f73"></path><path d="M1218.3 63.9L1135.3 0L1088.7 90.9Z" fill="#0d1a30" stroke="#0d1a30"></path><path d="M1213.3 315.6L1216.3 250.7L1022.7 267.6Z" fill="#27d3f9" stroke="#27d3f9"></path><path d="M110.7 317.6L115.7 445.4L239.3 343.6Z" fill="#152a45" stroke="#152a45"></path><path d="M90.7 144.9L242.3 207.7L257.3 82.9Z" fill="#152a45" stroke="#152a45"></path><path d="M110.7 317.6L0 350.6L115.7 445.4Z" fill="#2778a1" stroke="#2778a1"></path><path d="M239.3 720L276 720L239.3 588.1Z" fill="#25638a" stroke="#25638a"></path><path d="M239.3 588.1L276 720L331 644.1Z" fill="#152a45" stroke="#152a45"></path><path d="M70.7 582.1L111.7 478.3L0 509.3Z" fill="#278eb8" stroke="#278eb8"></path><path d="M115.7 445.4L111.7 478.3L252.3 422.4Z" fill="#27a4cf" stroke="#27a4cf"></path><path d="M191.3 0L90.7 144.9L257.3 82.9Z" fill="#27a4cf" stroke="#27a4cf"></path><path d="M103.7 720L239.3 720L239.3 588.1Z" fill="#27d3f9" stroke="#27d3f9"></path><path d="M1216.3 250.7L1218.3 63.9L1088.7 90.9Z" fill="#25638a" stroke="#25638a"></path><path d="M958 720L1096.7 720L1084.7 627.1Z" fill="#278eb8" stroke="#278eb8"></path><path d="M1084.7 627.1L1161.3 643.1L1078.7 514.3Z" fill="#214f73" stroke="#214f73"></path><path d="M1096.7 720L1161.3 643.1L1084.7 627.1Z" fill="#0d1a30" stroke="#0d1a30"></path><path d="M1213.3 315.6L1280 293.6L1216.3 250.7Z" fill="#214f73" stroke="#214f73"></path><path d="M1216.3 250.7L1280 117.9L1218.3 63.9Z" fill="#2778a1" stroke="#2778a1"></path><path d="M1280 394.4L1138.3 419.4L1137.3 472.3Z" fill="#0d1a30" stroke="#0d1a30"></path><path d="M1280 293.6L1280 213.7L1216.3 250.7Z" fill="#2778a1" stroke="#2778a1"></path><path d="M1280 526.3L1280 394.4L1137.3 472.3Z" fill="#0d1a30" stroke="#0d1a30"></path><path d="M1280 213.7L1280 117.9L1216.3 250.7Z" fill="#27a4cf" stroke="#27a4cf"></path><path d="M0 431.4L111.7 478.3L115.7 445.4Z" fill="#26bbe4" stroke="#26bbe4"></path><path d="M111.7 478.3L70.7 582.1L239.3 588.1Z" fill="#25638a" stroke="#25638a"></path><path d="M90.7 144.9L0 246.7L82.7 250.7Z" fill="#152a45" stroke="#152a45"></path><path d="M82.7 250.7L0 350.6L110.7 317.6Z" fill="#25638a" stroke="#25638a"></path><path d="M0 129.9L0 246.7L90.7 144.9Z" fill="#278eb8" stroke="#278eb8"></path><path d="M191.3 0L64.7 0L90.7 144.9Z" fill="#2778a1" stroke="#2778a1"></path><path d="M0 246.7L0 350.6L82.7 250.7Z" fill="#2778a1" stroke="#2778a1"></path><path d="M1280 606.1L1280 526.3L1161.3 643.1Z" fill="#152a45" stroke="#152a45"></path><path d="M1161.3 643.1L1280 526.3L1137.3 472.3Z" fill="#00041c" stroke="#00041c"></path><path d="M0 350.6L0 431.4L115.7 445.4Z" fill="#152a45" stroke="#152a45"></path><path d="M64.7 0L0 129.9L90.7 144.9Z" fill="#25638a" stroke="#25638a"></path><path d="M1280 117.9L1280 0L1218.3 63.9Z" fill="#27d3f9" stroke="#27d3f9"></path><path d="M1218.3 63.9L1280 0L1135.3 0Z" fill="#25638a" stroke="#25638a"></path><path d="M0 431.4L0 509.3L111.7 478.3Z" fill="#27a4cf" stroke="#27a4cf"></path><path d="M1213.3 720L1280 606.1L1161.3 643.1Z" fill="#00041c" stroke="#00041c"></path><path d="M70.7 582.1L103.7 720L239.3 588.1Z" fill="#26bbe4" stroke="#26bbe4"></path><path d="M0 622.1L103.7 720L70.7 582.1Z" fill="#214f73" stroke="#214f73"></path><path d="M1096.7 720L1213.3 720L1161.3 643.1Z" fill="#152a45" stroke="#152a45"></path><path d="M64.7 0L0 0L0 129.9Z" fill="#00041c" stroke="#00041c"></path><path d="M0 509.3L0 622.1L70.7 582.1Z" fill="#278eb8" stroke="#278eb8"></path><path d="M1213.3 720L1280 720L1280 606.1Z" fill="#27d3f9" stroke="#27d3f9"></path><path d="M0 622.1L0 720L103.7 720Z" fill="#2778a1" stroke="#2778a1"></path></g></svg>