<svg id="visual" viewBox="0 0 1920 1080" width="1920" height="1080"
  xmlns="http://www.w3.org/2000/svg" xmlns:xlink="http://www.w3.org/1999/xlink" version="1.1">
  <rect x="0" y="0" width="1920" height="1080" fill="#001220"></rect>
  <defs>
    <linearGradient id="grad1_0" x1="43.8%" y1="0%" x2="100%" y2="100%">
      <stop offset="14.444444444444446%" stop-color="#58aeff" stop-opacity="1"></stop>
      <stop offset="85.55555555555554%" stop-color="#58aeff" stop-opacity="1"></stop>
    </linearGradient>
  </defs>
  <defs>
    <linearGradient id="grad1_1" x1="43.8%" y1="0%" x2="100%" y2="100%">
      <stop offset="14.444444444444446%" stop-color="#58aeff" stop-opacity="1"></stop>
      <stop offset="85.55555555555554%" stop-color="#255b86" stop-opacity="1"></stop>
    </linearGradient>
  </defs>
  <defs>
    <linearGradient id="grad1_2" x1="43.8%" y1="0%" x2="100%" y2="100%">
      <stop offset="14.444444444444446%" stop-color="#001220" stop-opacity="1"></stop>
      <stop offset="85.55555555555554%" stop-color="#255b86" stop-opacity="1"></stop>
    </linearGradient>
  </defs>
  <defs>
    <linearGradient id="grad2_0" x1="0%" y1="0%" x2="56.3%" y2="100%">
      <stop offset="14.444444444444446%" stop-color="#58aeff" stop-opacity="1"></stop>
      <stop offset="85.55555555555554%" stop-color="#58aeff" stop-opacity="1"></stop>
    </linearGradient>
  </defs>
  <defs>
    <linearGradient id="grad2_1" x1="0%" y1="0%" x2="56.3%" y2="100%">
      <stop offset="14.444444444444446%" stop-color="#255b86" stop-opacity="1"></stop>
      <stop offset="85.55555555555554%" stop-color="#58aeff" stop-opacity="1"></stop>
    </linearGradient>
  </defs>
  <defs>
    <linearGradient id="grad2_2" x1="0%" y1="0%" x2="56.3%" y2="100%">
      <stop offset="14.444444444444446%" stop-color="#255b86" stop-opacity="1"></stop>
      <stop offset="85.55555555555554%" stop-color="#001220" stop-opacity="1"></stop>
    </linearGradient>
  </defs>
  <g transform="translate(1920, 0)">
    <path
      d="M0 540C-35.3 513.6 -70.5 487.2 -109 477.7C-147.5 468.3 -189.2 475.8 -222.1 461.3C-255 446.8 -279.1 410.4 -303.6 380.8C-328.2 351.1 -353.1 328.3 -382.3 304.9C-411.5 281.5 -445 257.5 -471.2 226.9C-497.4 196.3 -516.2 159.1 -526.5 120.2C-536.7 81.2 -538.4 40.6 -540 0L0 0Z"
      fill="#113550"></path>
    <path
      d="M0 360C-23.5 342.4 -47 324.8 -72.7 318.5C-98.4 312.2 -126.2 317.2 -148.1 307.5C-170 297.9 -186.1 273.6 -202.4 253.8C-218.8 234.1 -235.4 218.9 -254.9 203.3C-274.4 187.7 -296.7 171.7 -314.1 151.3C-331.6 130.9 -344.1 106.1 -351 80.1C-357.8 54.2 -358.9 27.1 -360 0L0 0Z"
      fill="#3d83c1"></path>
    <path
      d="M0 180C-11.8 171.2 -23.5 162.4 -36.3 159.2C-49.2 156.1 -63.1 158.6 -74 153.8C-85 148.9 -93 136.8 -101.2 126.9C-109.4 117 -117.7 109.4 -127.4 101.6C-137.2 93.8 -148.3 85.8 -157.1 75.6C-165.8 65.4 -172.1 53 -175.5 40.1C-178.9 27.1 -179.5 13.5 -180 0L0 0Z"
      fill="#58aeff"></path>
  </g>
  <g transform="translate(0, 1080)">
    <path
      d="M0 -540C42.8 -542.4 85.5 -544.8 120.2 -526.5C154.8 -508.1 181.4 -468.9 216.5 -449.6C251.6 -430.2 295.3 -430.7 331.1 -415.2C366.9 -399.6 394.8 -368.2 421.4 -336.1C448 -303.9 473.3 -271.2 485.6 -233.9C497.9 -196.6 497.1 -154.8 504 -115C510.9 -75.3 525.5 -37.7 540 0L0 0Z"
      fill="#113550"></path>
    <path
      d="M0 -360C28.5 -361.6 57 -363.2 80.1 -351C103.2 -338.7 120.9 -312.6 144.3 -299.7C167.7 -286.8 196.9 -287.1 220.7 -276.8C244.6 -266.4 263.2 -245.5 280.9 -224C298.7 -202.6 315.6 -180.8 323.7 -155.9C331.9 -131 331.4 -103.2 336 -76.7C340.6 -50.2 350.3 -25.1 360 0L0 0Z"
      fill="#3d83c1"></path>
    <path
      d="M0 -180C14.3 -180.8 28.5 -181.6 40.1 -175.5C51.6 -169.4 60.5 -156.3 72.2 -149.9C83.9 -143.4 98.4 -143.6 110.4 -138.4C122.3 -133.2 131.6 -122.7 140.5 -112C149.3 -101.3 157.8 -90.4 161.9 -78C166 -65.5 165.7 -51.6 168 -38.3C170.3 -25.1 175.2 -12.6 180 0L0 0Z"
      fill="#58aeff"></path>
  </g>
</svg>